<?xml version="1.0"?>
<svg width="220" height="280" xmlns="http://www.w3.org/2000/svg">
 <!-- Created with Method Draw - http://github.com/duopixel/Method-Draw/ -->
 <g>
  <title>background</title>
  <rect fill="#ffffff" id="canvas_background" height="282" width="222" y="-1" x="-1"/>
  <g display="none" overflow="visible" y="0" x="0" height="100%" width="100%" id="canvasGrid">
   <rect fill="url(#gridpattern)" stroke-width="0" y="0" x="0" height="100%" width="100%"/>
  </g>
 </g>
 <g>
  <title>Layer 1</title>
  <path stroke="#000" id="svg_2" stroke-width="7" fill="#fff"/>
  <ellipse stroke="#000" ry="89.000002" rx="107" id="svg_17" cy="181.484196" cx="110.855881" fill-opacity="null" stroke-opacity="null" stroke-width="7" fill="none"/>
  <rect stroke="#000" id="svg_18" height="9.666316" width="16.333297" y="82.151056" x="97.522592" fill-opacity="null" stroke-opacity="null" stroke-width="7" fill="none"/>
<path stroke="#000" d="m176.752884,42.880978c-7.231018,15.69099 -14.377014,25.265774 -32.692993,32.596912c-18.31601,7.331139 -47.529999,8.094841 -56.948013,6.483376c-9.417999,-1.611458 -19.503998,-6.324966 -24.255997,-16.208389c7.031006,-12.246384 8.727539,-19.32272 28.425537,-27.777695l37.850189,-11.588007c37.242004,-4.452637 59.816284,-28.551316 56.057281,-24.387264c-3.759003,4.164055 -1.205994,25.190083 -8.436005,40.881067z" id="svg_19" fill-opacity="null" stroke-width="7" fill="none"/>
  <path id="svg_23" d="m188.529007,55.318863" opacity="0.5" fill-opacity="null" stroke-opacity="null" stroke-width="7" stroke="#000" fill="none"/>
  <path d="m90.193558,52.652176c26.111633,-18.667053 46.890015,-16.000313 70.335022,-24.000414" id="svg_25" opacity="0.5" fill-opacity="null" stroke-opacity="null" stroke-width="7" stroke="#000" fill="none"/>
  <path id="svg_26" d="m81.527039,167.987579c-12.111328,16.333694 -18.222549,18.00032 -27.333832,27.000488l37.334015,1.333359" fill-opacity="null" stroke-opacity="null" stroke-width="7" stroke="#000" fill="none"/>
  <rect stroke="#ffffff" id="svg_33" height="8.000141" width="3.000036" y="84.986071" x="104.19413" stroke-width="11" fill="none"/>
  <path d="m34.526184,170.98764c0,-1.000015 -0.082855,-2.335953 0,-3.666733c0.333984,-5.364548 1.735947,-12.422882 4.33342,-19.667038c1.211746,-3.379501 2.417145,-7.457321 4.000061,-10.333511c1.158981,-2.105896 2.577805,-3.744308 4.33342,-5.666779c1.271561,-1.39241 2.537048,-1.976059 3.333389,-2.666718c0.563095,-0.488358 2.30864,-1.499199 4.000076,-1.666679c1.990295,-0.197067 2.716507,-0.175247 3.000061,0c1.268097,0.78373 1.194168,3.365395 2.333374,8.00013c1.486404,6.047302 2.691284,10.738663 4.000076,15.666962c1.08223,4.075195 2.11441,7.292145 2.666702,9.000168c0.422852,1.307724 0.333344,2.666702 0.333344,3.333389l0,0.333344l0,0.333328" id="svg_34" stroke-width="2" stroke="#000000" fill="none"/>
  <path d="m122.527786,157.654053c0,-0.333328 -0.214844,-1.35231 0.333344,-6.333435c0.479614,-4.358093 1.467743,-10.306717 2.666718,-16.666977c0.751221,-3.985062 1.333374,-7.00013 2.000031,-8.666817c0.666687,-1.666702 0.972565,-2.128998 1.333374,-3.000061c0.127563,-0.307968 0.897827,-1.486298 1.333344,-1.666687c0.615936,-0.255127 1.333374,-0.333344 2.666718,-0.333344c0.666687,0 1.409485,-0.382675 2.333374,0c0.871063,0.360794 1.89624,2.08577 5.666779,6.33345c3.770538,4.247673 5.577545,8.255821 8.333496,12.333549c2.91568,4.314026 5.018616,9.77977 7.666809,16.666977c2.089294,5.433685 3.666718,9.000153 4.000061,10.333511l0,0.333344" id="svg_35" stroke-width="2" stroke="#000000" fill="none"/>
  <path d="m77.526978,230.655396c0,0.333344 0.627304,2.024292 1.666687,3.666733c1.2854,2.031204 3.065781,4.96933 5.666779,7.000122c3.064041,2.392334 7.664322,4.641632 14.333603,4.000092c3.464172,-0.333221 6.80838,-2.600494 8.000122,-5.333435c1.138428,-2.610641 1.666718,-4.666763 2.000061,-6.33345l0.666656,-2.000046l0.333344,-0.666672l0,-0.333344" id="svg_37" fill-opacity="null" stroke-opacity="null" stroke-width="7" stroke="#000" fill="none"/>
 </g>
</svg>